#!OML:ASF F:\VICON\USERDATA\INSTALL\rory3\rory3.ASF
:FULLY-SPECIFIED
:DEGREES
2149
root -4.87679 17.4418 5.69828 -859.699 -93.2146 859.7
lowerback 3.08771 -1.7774 -4.40098
upperback 0.0233752 -2.58691 -1.91934
thorax -1.60228 -1.27532 0.604315
lowerneck -10.1879 -6.59915 -13.3109
upperneck -25.2391 -7.48461 14.9662
head -4.7643 -4.00789 7.18628
rclavicle 1.57661e-014 1.59028e-015
rhumerus 73.7048 -34.9683 -31.2502
rradius 47.3317
rwrist -8.29361
rhand -31.6948 -8.70472
rfingers 7.12502
rthumb -4.95402 -38.6268
lclavicle 1.57661e-014 1.59028e-015
lhumerus 16.8049 -18.3707 60.9698
lradius 89.983
lwrist 0.465717
lhand -24.2896 21.9709
lfingers 7.12502
lthumb 2.19772 51.9393
rfemur -22.9626 2.65658 22.8823
rtibia 39.8426
rfoot -15.3709 -8.01653
rtoes 10.4121
lfemur -4.56142 -0.241277 -14.0685
ltibia 35.4434
lfoot -19.9584 -0.629589
ltoes -23.5201
2150
root -4.80867 17.42 5.74295 -864.525 -93.1735 864.796
lowerback 3.04498 -1.83064 -4.66496
upperback -0.0326891 -2.66648 -1.88886
thorax -1.61949 -1.31179 0.784832
lowerneck -10.3141 -6.55967 -13.205
upperneck -25.4235 -7.45941 14.8177
head -4.82317 -3.99937 7.1281
rclavicle 1.49089e-015 -2.8625e-014
rhumerus 73.1846 -34.6981 -31.024
rradius 48.1881
rwrist -8.21735
rhand -31.7987 -8.73288
rfingers 7.12502
rthumb -5.05434 -38.6526
lclavicle 1.49089e-015 -2.8625e-014
lhumerus 17.5996 -17.7884 60.2152
lradius 90.1526
lwrist 0.863789
lhand -24.6399 21.8817
lfingers 7.12502
lthumb 1.85937 51.8533
rfemur -23.8096 2.36237 22.4097
rtibia 40.3883
rfoot -15.3221 -7.91179
rtoes 10.1218
lfemur -4.75871 0.0605661 -14.7234
ltibia 34.8411
lfoot -20.5963 0.454637
ltoes -22.7974
2151
root -4.74179 17.4007 5.78638 -868.601 -93.1483 868.983
lowerback 3.10136 -1.84833 -4.82181
upperback -0.00750117 -2.69741 -1.84927
thorax -1.61474 -1.32615 0.915248
lowerneck -10.3333 -6.51189 -13.156
upperneck -25.8424 -7.4526 14.5848
head -4.97612 -3.99609 7.07065
rclavicle 2.02015e-014 -9.54166e-015
rhumerus 72.3258 -34.6799 -30.4074
rradius 49.1651
rwrist -8.51108
rhand -31.7917 -8.47456
rfingers 7.12502
rthumb -5.04756 -38.3944
lclavicle 2.02015e-014 -9.54166e-015
lhumerus 18.4197 -17.2168 59.5598
lradius 90.3606
lwrist 1.0161
lhand -24.8465 21.8347
lfingers 7.12502
lthumb 1.65987 51.808
rfemur -24.4231 2.11481 21.9622
rtibia 40.8393
rfoot -15.2116 -7.65892
rtoes 10.1428
lfemur -4.76811 0.342013 -15.364
ltibia 34.2849
lfoot -21.1711 1.53145
ltoes -21.7719
2152
root -4.67206 17.3772 5.82726 -870.956 -93.2119 871.415
lowerback 3.2244 -1.86144 -4.9012
upperback 0.045631 -2.7213 -1.77334
thorax -1.62043 -1.33733 1.04163
lowerneck -10.5308 -6.52911 -13.1542
upperneck -26.0816 -7.49888 14.4386
head -5.02941 -4.01419 7.02904
rclavicle 2.21148e-014 1.59028e-015
rhumerus 71.8205 -34.5901 -30.0571
rradius 49.8981
rwrist -8.45822
rhand -31.7185 -8.30401
rfingers 7.12502
rthumb -4.9769 -38.2256
lclavicle 2.21148e-014 1.59028e-015
lhumerus 19.3355 -16.6815 58.9941
lradius 90.4343
lwrist 1.1716
lhand -25.1852 22.1546
lfingers 7.12502
lthumb 1.33268 52.1302
rfemur -24.9639 2.04024 21.6161
rtibia 41.2098
rfoot -15.1198 -7.40221
rtoes 10.7975
lfemur -4.80796 0.716378 -15.8606
ltibia 33.7566
lfoot -21.6356 2.80693
ltoes -21.6539
2153
root -4.60018 17.3591 5.869 -873.635 -93.2566 874.269
lowerback 3.28525 -1.87367 -5.02112
upperback 0.0302276 -2.74473 -1.70553
thorax -1.66031 -1.34633 1.18136
lowerneck -10.6406 -6.50203 -13.1911
upperneck -26.2896 -7.47376 14.3664
head -5.08849 -3.99796 7.0225
rclavicle 7.40473e-015 1.59028e-015
rhumerus 71.1138 -34.5827 -29.553
rradius 50.7069
rwrist -8.4327
rhand -31.5514 -8.39877
rfingers 7.12502
rthumb -4.81554 -38.324
lclavicle 7.40473e-015 1.59028e-015
lhumerus 20.1797 -16.1577 58.4376
lradius 90.5323
lwrist 1.28789
lhand -25.2395 22.4565
lfingers 7.12502
lthumb 1.28022 52.4324
rfemur -25.6063 1.90148 21.2523
rtibia 41.492
rfoot -14.9589 -7.33025
rtoes 11.1284
lfemur -4.97176 0.967414 -16.3976
ltibia 33.2474
lfoot -22.0642 4.09824
ltoes -21.0117
2154
root -4.53125 17.3458 5.91395 -875.562 -93.3241 876.281
lowerback 3.33905 -1.87864 -4.96245
upperback 0.111484 -2.74909 -1.69894
thorax -1.60885 -1.35127 1.15598
lowerneck -10.7827 -6.5218 -13.1388
upperneck -26.602 -7.51756 14.3337
head -5.16751 -4.02897 7.01674
rclavicle 1.90833e-014 1.19271e-014
rhumerus 70.4343 -34.6415 -29.068
rradius 51.4448
rwrist -8.3633
rhand -31.5959 -8.49969
rfingers 7.12502
rthumb -4.85859 -38.424
lclavicle 1.90833e-014 1.19271e-014
lhumerus 21.2011 -15.645 57.714
lradius 90.6055
lwrist 1.35591
lhand -25.2718 22.7282
lfingers 7.12502
lthumb 1.24904 52.7042
rfemur -26.0732 1.67529 20.9704
rtibia 41.6951
rfoot -14.7591 -7.35942
rtoes 10.1686
lfemur -5.06357 1.12916 -16.8537
ltibia 32.7842
lfoot -22.4795 5.04797
ltoes -20.0975
2155
root -4.46462 17.3381 5.96262 -875.099 -93.4118 875.774
lowerback 3.53763 -1.91795 -4.9619
upperback 0.151282 -2.80412 -1.44621
thorax -1.6632 -1.3755 1.42408
lowerneck -11.0537 -6.50853 -13.4541
upperneck -26.6745 -7.46266 14.3543
head -5.14711 -3.97518 7.07476
rclavicle 2.82771e-014 1.11319e-014
rhumerus 70.09 -34.3693 -28.612
rradius 52.1785
rwrist -8.26502
rhand -31.7927 -8.53762
rfingers 7.12502
rthumb -5.04859 -38.4575
lclavicle 2.82771e-014 1.11319e-014
lhumerus 21.9482 -14.898 57.4093
lradius 90.5589
lwrist 1.0867
lhand -24.8414 22.7933
lfingers 7.12502
lthumb 1.66473 52.7666
rfemur -26.3067 1.5693 20.8266
rtibia 41.817
rfoot -14.5979 -7.39431
rtoes 10.0858
lfemur -5.01329 1.00854 -17.1278
ltibia 32.3889
lfoot -22.7272 5.68699
ltoes -18.5495
2156
root -4.3971 17.3321 6.00886 -873.899 -93.4021 874.619
lowerback 3.72835 -1.90395 -5.12749
upperback 0.102019 -2.79591 -1.12021
thorax -1.79708 -1.36305 1.85918
lowerneck -11.4066 -6.52927 -13.7715
upperneck -26.5777 -7.44114 14.3359
head -5.05853 -3.93003 7.10455
rclavicle 2.4376e-014 3.18055e-015
rhumerus 69.2566 -34.2996 -27.5197
rradius 53.1847
rwrist -8.76026
rhand -31.7824 -8.75545
rfingers 7.12502
rthumb -5.03862 -38.6755
lclavicle 2.4376e-014 3.18055e-015
lhumerus 22.5042 -14.2547 57.2217
lradius 90.5534
lwrist 1.00616
lhand -24.851 22.6712
lfingers 7.12502
lthumb 1.65543 52.6446
rfemur -26.6295 1.43983 20.6962
rtibia 41.8716
rfoot -14.2467 -7.15312
rtoes 10.8271
lfemur -5.12642 0.820391 -17.3259
ltibia 32.1333
lfoot -22.7035 6.15306
ltoes -18.0108
2157
root -4.33244 17.3295 6.04599 -873.77 -93.3752 874.492
lowerback 3.8311 -1.85473 -5.32823
upperback 0.172357 -2.73843 -0.955396
thorax -1.76869 -1.33351 2.14006
lowerneck -11.5909 -6.52586 -13.7251
upperneck -26.8162 -7.45997 14.2155
head -5.11813 -3.94044 7.06555
rclavicle -2.2413e-014 -1.98785e-014
rhumerus 68.8393 -34.2283 -26.9675
rradius 53.6509
rwrist -8.79395
rhand -32.0213 -8.58983
rfingers 7.12502
rthumb -5.26926 -38.5043
lclavicle -2.2413e-014 -1.98785e-014
lhumerus 23.3494 -13.7122 56.8331
lradius 90.5898
lwrist 1.24707
lhand -25.0118 22.8091
lfingers 7.12502
lthumb 1.50013 52.7836
rfemur -26.8445 1.37382 20.5285
rtibia 41.8637
rfoot -13.7703 -6.92082
rtoes 10.7488
lfemur -5.31798 0.64838 -17.4698
ltibia 32.1006
lfoot -22.6515 6.15801
ltoes -18.0645
2158
root -4.26927 17.3335 6.08083 -874.254 -93.4073 875.088
lowerback 3.72373 -1.83797 -5.47069
upperback 0.249915 -2.70902 -0.8478
thorax -1.61888 -1.32248 2.32254
lowerneck -11.6543 -6.43506 -13.5231
upperneck -27.2559 -7.41008 13.9906
head -5.2841 -3.9301 6.98676
rclavicle 1.81391e-014 1.35174e-014
rhumerus 69.0532 -33.8871 -27.0889
rradius 53.6795
rwrist -8.26173
rhand -32.319 -8.3549
rfingers 7.12502
rthumb -5.55673 -38.262
lclavicle 1.81391e-014 1.35174e-014
lhumerus 24.2861 -13.2254 56.3369
lradius 90.5196
lwrist 1.0931
lhand -25.2127 22.9997
lfingers 7.12502
lthumb 1.3061 52.9755
rfemur -27.0921 1.35806 20.3041
rtibia 41.8413
rfoot -13.569 -6.40501
rtoes 11.6575
lfemur -5.825 0.923203 -17.5368
ltibia 32.319
lfoot -22.509 5.73848
ltoes -19.2482
